<svg width="117" height="117" viewBox="0 0 117 117" fill="none" xmlns="http://www.w3.org/2000/svg">
<g id="civil-aviation-authority-of-singapore-caas-logo-vector 2">
<path id="Vector" d="M97.3684 64.9242C94.9279 64.9242 93.6 64.6909 91.3569 64.1705C90.5135 63.9731 90.0469 63.668 89.7598 62.5555L88.5396 56.4004C88.5396 56.4004 88.9882 56.2569 89.706 56.0236C89.706 56.0236 93.2949 59.9535 97.5837 59.9535C100.347 59.9535 102.393 58.6435 102.447 56.849C102.483 55.8262 101.962 55.0725 98.6963 53.0627C93.8692 50.1197 92.308 48.2894 92.1823 45.2926C92.0926 43.1572 92.8463 41.2191 94.3896 39.6938C96.1123 37.9711 98.4092 36.3381 103.523 36.051C103.757 36.0331 104.008 36.0331 104.259 36.0331C108.171 36.0331 111.383 37.7558 112.245 38.2582C112.245 38.2582 111.204 39.5861 110.163 40.6987C109.356 41.578 107.83 42.9239 107.83 42.9239C107.202 42.2958 105.802 41.0038 103.631 41.0038C102.267 41.0038 101.155 41.7036 100.688 42.2779C100.293 42.7624 100.132 43.211 100.15 43.7314C100.204 44.8619 100.868 45.6335 104.726 47.9664C108.692 50.4248 110.36 52.5602 110.468 55.5391C110.576 58.0513 109.356 60.5457 107.202 62.2504C105.246 63.8475 102.644 64.7088 99.2346 64.8883C98.6066 64.9062 97.9785 64.9242 97.3684 64.9242Z" fill="#C70068"/>
<path id="Vector_2" d="M17.9806 64.9242C9.70801 64.9242 4.55786 60.2226 4.55786 52.6679C4.55786 48.3432 6.51384 44.2518 10.049 41.1473C13.5303 38.0967 18.1421 36.374 22.8795 36.374C27.4375 36.374 31.2238 37.8814 32.462 38.7607L29.1781 44.9157C29.1781 44.9157 26.6838 42.6547 22.5385 42.6547C16.8859 42.6547 12.6689 46.459 12.2741 51.8963C12.1306 53.9061 12.6151 55.5391 13.7276 56.7234C14.9479 58.0334 16.85 58.7332 19.2188 58.7332C21.3721 58.7332 24.333 58.6256 28.0296 56.3825H29.5549C29.5549 56.3825 25.4815 62.7529 25.2303 63.1476C24.979 63.4886 24.5663 64.2423 23.6152 64.4576C23.2922 64.5473 20.7979 65.0139 17.9806 64.9242Z" fill="#00326C"/>
<path id="Vector_3" d="M29.573 56.4005C29.573 56.4005 25.4098 62.9145 25.2483 63.1657L29.573 56.4005Z" fill="#003D85"/>
<path id="Vector_4" d="M82.0077 36.751H75.9782L64.7986 54.0856C67.275 54.0139 69.7873 53.9062 72.2996 53.7447L76.4269 46.7283L77.4677 53.332C80.0158 53.0987 82.546 52.8116 85.0045 52.4706L82.0077 36.751ZM85.0942 53.009C82.6537 53.4935 80.1414 53.8882 77.6112 54.2292L79.2262 64.4577H87.2655L85.0942 53.009ZM58.1052 64.4757H65.983L71.5997 54.929C68.9798 55.1803 66.3957 55.3777 63.8834 55.5212L58.1052 64.4757Z" fill="#00326C"/>
<path id="Vector_5" d="M51.3401 36.751H45.3106L27.4556 64.4757H35.3154L40.4835 55.7007H40.4476C40.1425 55.4494 35.6563 51.681 35.7102 51.681C37.5944 52.2014 39.7298 52.6321 42.0806 52.991L45.7592 46.7462L46.8359 53.5832C49.2944 53.8165 51.9143 53.978 54.624 54.0856L51.3401 36.751ZM54.9649 55.8622C52.1296 55.916 49.5097 55.916 47.1948 55.8981L48.5407 64.4757H56.5979L54.9649 55.8622Z" fill="#00326C"/>
<g id="Group">
<g id="Clip path group">
<mask id="mask0_2051_3249" style="mask-type:luminance" maskUnits="userSpaceOnUse" x="35" y="51" width="59" height="11">
<g id="SVGID_2_">
<path id="Vector_6" d="M37.9892 55.5212L35.0283 61.4789C35.6026 61.4789 35.3513 61.4968 35.9256 61.4968C66.7188 62.0352 88.1449 53.8524 93.618 51.376C93.4745 51.2504 93.313 51.1786 93.1874 51.053C72.9098 57.0645 42.8343 56.0057 37.9892 55.5212Z" fill="white"/>
</g>
</mask>
<g mask="url(#mask0_2051_3249)">
<path id="Vector_7" d="M36.3382 42.4036L95.2509 51.3042L92.308 70.7204L33.3953 61.8019L36.3382 42.4036Z" fill="url(#paint0_linear_2051_3249)"/>
</g>
</g>
</g>
<g id="Group_2">
<path id="Vector_8" d="M9.63644 78.9211C9.4211 79.0109 8.9007 79.2262 8.30852 79.2262C7.19595 79.2262 6.28076 78.5264 6.28076 76.5165C6.28076 75.1527 6.72938 73.9325 8.20085 73.9325C9.24165 73.9325 9.83383 74.5426 9.83383 75.4219H8.97248C8.97248 75.1168 8.88276 74.5247 8.16496 74.5247C7.21389 74.5247 7.07033 75.6911 7.07033 76.3909C7.07033 77.683 7.37539 78.6161 8.43414 78.6161C9.0622 78.6161 9.49288 78.2931 9.61849 78.2213V78.9211H9.63644Z" fill="#00326C"/>
<path id="Vector_9" d="M10.4619 74.0222H11.2515V74.7759H10.4619V74.0222ZM10.5337 75.6193H11.1977V79.1544H10.5337V75.6193Z" fill="#00326C"/>
<path id="Vector_10" d="M11.7361 75.6193H12.4718L13.387 78.1854L14.2125 75.6193H14.9482L13.728 79.1544H13.064L11.7361 75.6193Z" fill="#00326C"/>
<path id="Vector_11" d="M15.3967 74.0222H16.1863V74.7759H15.3967V74.0222ZM15.4685 75.6193H16.1325V79.1544H15.4685V75.6193Z" fill="#00326C"/>
<path id="Vector_12" d="M17.9091 74.0222H17.2451V79.1544H17.9091V74.0222Z" fill="#00326C"/>
<path id="Vector_13" d="M21.5337 74.0222H22.431L24.1716 79.1544H23.4L22.8975 77.683H21.0851L20.5827 79.1544H19.811L21.5337 74.0222ZM21.2466 77.0908H22.7001L22.0003 74.7041H21.9824L21.2466 77.0908Z" fill="#00326C"/>
<path id="Vector_14" d="M24.1538 75.6193H24.8895L25.7868 78.1854H25.8047L26.6302 75.6193H27.3659L26.1457 79.1544H25.4638L24.1538 75.6193Z" fill="#00326C"/>
<path id="Vector_15" d="M27.958 74.0222H28.7476V74.7759H27.958V74.0222ZM28.0298 75.6193H28.6937V79.1544H28.0298V75.6193Z" fill="#00326C"/>
<path id="Vector_16" d="M31.4214 78.7237C31.3138 78.9211 31.0446 79.2441 30.5063 79.2441C29.8423 79.2441 29.5193 78.8493 29.5193 78.293C29.5193 77.3599 30.5421 77.1266 31.4394 77.1266V76.5165C31.3855 76.1756 31.1523 76.0679 30.901 76.0679C30.5062 76.0679 30.3447 76.3191 30.3447 76.6062H29.6449C29.6449 76.032 29.9679 75.5475 30.9549 75.5475C32.1033 75.5475 32.1033 76.4088 32.1033 76.7318V79.1544H31.4394V78.7237H31.4214ZM31.2958 77.5752C30.7754 77.5752 30.255 77.8085 30.255 78.2571C30.255 78.5263 30.4345 78.7058 30.6319 78.7058C31.0805 78.7058 31.4214 78.1854 31.4214 77.7547V77.5573H31.2958V77.5752Z" fill="#00326C"/>
<path id="Vector_17" d="M34.8847 79.1903C34.7232 79.2262 34.5437 79.2441 34.3643 79.2441C33.5209 79.2441 33.3056 78.8673 33.3056 78.3828V76.1397H32.6775V75.6193H33.3056V74.7938L33.9695 74.3811V75.6193H34.9385V76.1397H33.9695V78.0239C33.9695 78.3469 34.0054 78.7058 34.5258 78.7058C34.6514 78.7058 34.777 78.6878 34.8847 78.652V79.1903Z" fill="#00326C"/>
<path id="Vector_18" d="M35.4949 74.0222H36.2844V74.7759H35.4949V74.0222ZM35.5667 75.6193H36.2306V79.1544H35.5667V75.6193Z" fill="#00326C"/>
<path id="Vector_19" d="M37.0381 77.3779C37.0381 76.2473 37.5226 75.5295 38.5813 75.5295C39.6401 75.5295 40.1246 76.2473 40.1246 77.3779C40.1246 78.4904 39.6401 79.2262 38.5813 79.2262C37.5226 79.2262 37.0381 78.4904 37.0381 77.3779ZM38.5813 78.7237C39.2991 78.7237 39.3889 77.9521 39.3889 77.3958C39.3889 76.8216 39.2991 76.0679 38.5813 76.0679C37.8456 76.0679 37.7559 76.8216 37.7559 77.3958C37.7738 77.9521 37.8635 78.7237 38.5813 78.7237Z" fill="#00326C"/>
<path id="Vector_20" d="M40.8424 75.6193H41.5064V76.3729H41.5243C41.632 76.0679 41.9191 75.5295 42.6369 75.5295C43.4444 75.5295 43.57 76.2653 43.57 76.696V79.1544H42.9061V77.2163C42.9061 76.5703 42.9061 76.1935 42.4215 76.1935C41.8832 76.1935 41.4884 76.9292 41.4884 77.647V79.1544H40.8245V75.6193H40.8424Z" fill="#00326C"/>
<path id="Vector_21" d="M46.9615 74.0222H47.8587L49.5994 79.1544H48.8277L48.3253 77.683H46.5129L46.0104 79.1544H45.2388L46.9615 74.0222ZM46.6744 77.0908H48.1279L47.428 74.7041H47.4101L46.6744 77.0908Z" fill="#00326C"/>
<path id="Vector_22" d="M52.2553 78.4007C52.1297 78.7058 51.8426 79.2441 51.1248 79.2441C50.3173 79.2441 50.1917 78.5084 50.1917 78.0777V75.6372H50.8556V77.5752C50.8556 78.2392 50.8556 78.5981 51.3401 78.5981C51.8785 78.5981 52.2732 77.8624 52.2732 77.1446V75.6372H52.9372V79.1723H52.2732V78.4007H52.2553Z" fill="#00326C"/>
<path id="Vector_23" d="M55.7905 79.1903C55.629 79.2262 55.4495 79.2441 55.2701 79.2441C54.4267 79.2441 54.2113 78.8673 54.2113 78.3828V76.1397H53.5833V75.6193H54.2113V74.7938L54.8753 74.3811V75.6193H55.8443V76.1397H54.8753V78.0239C54.8753 78.3469 54.9112 78.7058 55.4316 78.7058C55.5572 78.7058 55.6828 78.6878 55.7905 78.652V79.1903Z" fill="#00326C"/>
<path id="Vector_24" d="M56.5441 74.0222H57.208V76.373H57.226C57.3336 76.0679 57.6208 75.5296 58.3385 75.5296C59.1461 75.5296 59.2717 76.2653 59.2717 76.696V79.1544H58.6077V77.2164C58.6077 76.5704 58.6077 76.1935 58.1232 76.1935C57.5849 76.1935 57.1901 76.9293 57.1901 77.6471V79.1544H56.5261V74.0222H56.5441Z" fill="#00326C"/>
<path id="Vector_25" d="M59.9895 77.3779C59.9895 76.2473 60.474 75.5295 61.5328 75.5295C62.5915 75.5295 63.076 76.2473 63.076 77.3779C63.076 78.4904 62.5736 79.2262 61.5328 79.2262C60.492 79.2262 59.9895 78.4904 59.9895 77.3779ZM61.5507 78.7237C62.2685 78.7237 62.3582 77.9521 62.3582 77.3958C62.3582 76.8216 62.2685 76.0679 61.5507 76.0679C60.815 76.0679 60.7252 76.8216 60.7252 77.3958C60.7252 77.9521 60.815 78.7237 61.5507 78.7237Z" fill="#00326C"/>
<path id="Vector_26" d="M63.8118 75.6193H64.4757V76.3371H64.4937C64.5834 76.0499 64.8885 75.5475 65.5704 75.5475V76.2832C64.9782 76.2832 64.4757 76.5883 64.4757 77.665V79.1723H63.8118V75.6193Z" fill="#00326C"/>
<path id="Vector_27" d="M66.1445 74.0222H66.9341V74.7759H66.1445V74.0222ZM66.1984 75.6193H66.8623V79.1544H66.1984V75.6193Z" fill="#00326C"/>
<path id="Vector_28" d="M69.6259 79.1903C69.4644 79.2262 69.285 79.2441 69.1055 79.2441C68.2621 79.2441 68.0468 78.8673 68.0468 78.3828V76.1397H67.4187V75.6193H68.0468V74.7938L68.7107 74.3811V75.6193H69.6797V76.1397H68.7287V78.0239C68.7287 78.3469 68.7646 78.7058 69.285 78.7058C69.3926 78.7058 69.5362 78.6878 69.6439 78.652V79.1903H69.6259Z" fill="#00326C"/>
<path id="Vector_29" d="M71.4922 79.1723L70.1643 75.6193H70.9L71.8152 78.1674H71.8332L72.6586 75.6193H73.3944L71.6537 80.6797H71.0077L71.4922 79.1723Z" fill="#00326C"/>
<path id="Vector_30" d="M74.7581 77.3779C74.7581 76.2473 75.2426 75.5295 76.3013 75.5295C77.3601 75.5295 77.8446 76.2473 77.8446 77.3779C77.8446 78.4904 77.3601 79.2262 76.3013 79.2262C75.2426 79.2262 74.7581 78.4904 74.7581 77.3779ZM76.3013 78.7237C77.0191 78.7237 77.1088 77.9521 77.1088 77.3958C77.1088 76.8216 77.0191 76.0679 76.3013 76.0679C75.5656 76.0679 75.4758 76.8216 75.4758 77.3958C75.4938 77.9521 75.5835 78.7237 76.3013 78.7237Z" fill="#00326C"/>
<path id="Vector_31" d="M78.8314 76.1397H78.2034V75.6193H78.8314V75.2066C78.8314 74.3811 79.2801 73.9504 80.1773 73.9504C80.3926 73.9504 80.6618 73.9684 80.8771 74.0222V74.5785C80.6618 74.5247 80.4644 74.4708 80.1773 74.4708C79.6569 74.4708 79.4954 74.9015 79.4954 75.2604V75.6193H80.5362V76.1397H79.4954V79.1544H78.8314V76.1397Z" fill="#00326C"/>
<path id="Vector_32" d="M84.6816 76.373C85.1661 76.6601 85.7403 76.9652 85.7403 77.7906C85.7403 78.7776 84.9507 79.2441 83.9099 79.2441C83.2998 79.2441 82.7794 79.1006 82.6179 79.0468V78.2751C82.905 78.4546 83.3895 78.652 83.9638 78.652C84.4483 78.652 84.9328 78.4546 84.9328 77.8983C84.9328 77.3599 84.5021 77.1446 84.1073 76.9113L83.6408 76.6422C83.1742 76.373 82.5461 76.0859 82.5461 75.2963C82.5461 74.3811 83.2819 73.9684 84.233 73.9684C84.7175 73.9684 85.2199 74.0761 85.3814 74.1119V74.8118C85.2917 74.7759 84.6995 74.5606 84.1971 74.5606C83.6946 74.5606 83.3537 74.7938 83.3537 75.2245C83.3537 75.6193 83.8023 75.8705 84.1791 76.0859L84.6816 76.373Z" fill="#00326C"/>
<path id="Vector_33" d="M86.512 74.0222H87.3015V74.7759H86.512V74.0222ZM86.5658 75.6193H87.2298V79.1544H86.5658V75.6193Z" fill="#00326C"/>
<path id="Vector_34" d="M88.1449 75.6193H88.8089V76.3729H88.8268C88.9524 76.0679 89.2216 75.5295 89.9394 75.5295C90.7469 75.5295 90.8725 76.2653 90.8725 76.696V79.1544H90.2085V77.2163C90.2085 76.5703 90.2085 76.1935 89.724 76.1935C89.1857 76.1935 88.7909 76.9292 88.7909 77.647V79.1544H88.127V75.6193H88.1449Z" fill="#00326C"/>
<path id="Vector_35" d="M94.4255 79.2979C94.4255 80.3208 93.8513 80.7515 92.8105 80.7515C92.2721 80.7515 91.8953 80.6617 91.7338 80.6259V79.944C91.9491 80.0516 92.308 80.2311 92.7387 80.2311C93.7615 80.2311 93.7615 79.5133 93.7615 79.1185V78.5622H93.7436C93.6718 78.7596 93.3847 79.1723 92.7746 79.1723C91.8594 79.1723 91.5723 78.311 91.5723 77.4137C91.5723 76.4088 91.9312 75.5654 92.8284 75.5654C93.3847 75.5654 93.6718 75.9423 93.7436 76.1397H93.7615V75.6552H94.4255V79.2979ZM92.9899 78.634C93.5641 78.634 93.7615 77.8624 93.7615 77.3061C93.7615 76.7677 93.5821 76.0499 92.9899 76.0499C92.4157 76.0499 92.308 76.8216 92.308 77.3599C92.326 77.8444 92.4157 78.634 92.9899 78.634Z" fill="#00326C"/>
<path id="Vector_36" d="M97.0813 78.7237C96.9737 78.9211 96.7045 79.2441 96.1662 79.2441C95.5022 79.2441 95.1792 78.8493 95.1792 78.293C95.1792 77.3599 96.202 77.1266 97.0813 77.1266V76.5165C97.0275 76.1756 96.7942 76.0679 96.543 76.0679C96.1482 76.0679 95.9867 76.3191 95.9867 76.6062H95.2869C95.2869 76.032 95.6099 75.5475 96.5968 75.5475C97.7453 75.5475 97.7453 76.4088 97.7453 76.7318V79.1544H97.0813V78.7237ZM96.9378 77.5752C96.4174 77.5752 95.897 77.8085 95.897 78.2571C95.897 78.5263 96.0764 78.7058 96.2738 78.7058C96.7224 78.7058 97.0634 78.1854 97.0634 77.7547V77.5573H96.9378V77.5752Z" fill="#00326C"/>
<path id="Vector_37" d="M98.5349 75.6193H99.1989V76.1576H99.2168C99.3065 75.9602 99.6116 75.5475 100.186 75.5475C101.029 75.5475 101.388 76.3191 101.388 77.342C101.388 78.5263 100.94 79.2441 100.15 79.2441C99.5757 79.2441 99.3065 78.8852 99.2168 78.6699H99.1989V80.7515H98.5349V75.6193ZM99.9526 78.7237C100.473 78.7237 100.634 78.1315 100.634 77.3958C100.634 76.8575 100.563 76.0679 99.9346 76.0679C99.3963 76.0679 99.1809 76.8216 99.1809 77.4137C99.1989 78.0239 99.3783 78.7237 99.9526 78.7237Z" fill="#00326C"/>
<path id="Vector_38" d="M101.98 77.3779C101.98 76.2473 102.465 75.5295 103.523 75.5295C104.582 75.5295 105.067 76.2473 105.067 77.3779C105.067 78.4904 104.582 79.2262 103.523 79.2262C102.483 79.2262 101.98 78.4904 101.98 77.3779ZM103.541 78.7237C104.259 78.7237 104.349 77.9521 104.349 77.3958C104.349 76.8216 104.259 76.0679 103.541 76.0679C102.806 76.0679 102.716 76.8216 102.716 77.3958C102.716 77.9521 102.806 78.7237 103.541 78.7237Z" fill="#00326C"/>
<path id="Vector_39" d="M105.641 75.6193H106.305V76.3371H106.323C106.413 76.0499 106.718 75.5475 107.4 75.5475V76.2832C106.808 76.2832 106.305 76.5883 106.305 77.665V79.1723H105.641V75.6193Z" fill="#00326C"/>
<path id="Vector_40" d="M110.486 79.1185C110.199 79.1903 110.002 79.2441 109.607 79.2441C108.548 79.2441 107.866 78.616 107.866 77.2343C107.866 75.7269 108.835 75.5475 109.284 75.5475C110.145 75.5475 110.54 76.1397 110.54 76.9651V77.1266H108.512C108.512 77.7906 108.853 78.7237 109.804 78.7237C110.109 78.7237 110.307 78.6519 110.468 78.5981V79.1185H110.486ZM109.894 76.678C109.894 76.4627 109.768 76.0499 109.248 76.0499C108.71 76.0499 108.548 76.5165 108.548 76.678H109.894Z" fill="#00326C"/>
</g>
</g>
<defs>
<linearGradient id="paint0_linear_2051_3249" x1="39.2913" y1="52.7747" x2="51.8049" y2="54.6663" gradientUnits="userSpaceOnUse">
<stop stop-color="#00326C"/>
<stop offset="1" stop-color="#008FD3"/>
</linearGradient>
</defs>
</svg>
